<?xml version="1.0" encoding="utf-8"?>
<!-- Generator: Adobe Illustrator 25.2.3, SVG Export Plug-In . SVG Version: 6.00 Build 0)  -->
<svg version="1.1" id="圖層_1" xmlns="http://www.w3.org/2000/svg" xmlns:xlink="http://www.w3.org/1999/xlink" x="0px" y="0px"
	 viewBox="0 0 32 32" style="enable-background:new 0 0 32 32;" xml:space="preserve">
<style type="text/css">
	.st0{stroke:#FFFFFF;stroke-miterlimit:10;}
	.st1{fill:#FFFFFF;}
</style>
<g>
	<path class="st0" d="M13.2,8c-1-0.9-2.8-2.8-3.6-3.6c-0.4-0.4,1.6-2.6,1.9-2.9c0.3-0.3,0.6-0.5,1-0.1c4.3,4.3,8.6,8.6,12.9,12.9
		c0.8,0.8,1.5,1.6,2.3,2.4c-0.4,0.4-2.8,2.7-3.3,3.2c-3.9,3.9-6,6-9.9,9.9c-1.2,1.2-2.1,1.2-3.3,0c-3.2-3.2-6.3-6.3-9.5-9.5
		c-1-1-1-2.2,0.1-3.2c3.8-3.8,5.8-5.8,9.7-9.6C11.7,7.4,12.9,8.2,13.2,8z M6,17.2c6.8-0.6,9,2.2,17.3,0.9c-3.4-3.4-5.8-5.8-9.1-9.1
		C10.8,12.4,9.4,13.9,6,17.2z"/>
	<path class="st0" d="M28,21.3c0.9,1.7,1.9,3.5,2.8,5.3c0.7,1.5-0.1,3.2-1.6,3.9c-1.5,0.7-3.2,0.2-4.1-1.2c-0.5-0.8-0.6-1.7-0.3-2.6
		c0.7-2,1.8-3.6,3-5.3C27.8,21.3,27.9,21.3,28,21.3z"/>
	<path class="st1" d="M6,17.2c3.4-3.4,4.8-4.8,8.2-8.2c3.3,3.3,5.7,5.7,9.1,9.1C16.3,19.6,12.6,16.1,6,17.2z"/>
</g>
</svg>
