<?xml version="1.0" encoding="utf-8"?>
<!-- Generator: Adobe Illustrator 25.2.3, SVG Export Plug-In . SVG Version: 6.00 Build 0)  -->
<svg version="1.1" xmlns="http://www.w3.org/2000/svg" xmlns:xlink="http://www.w3.org/1999/xlink" x="0px" y="0px"
	 viewBox="0 0 32 32" style="enable-background:new 0 0 32 32;" xml:space="preserve">
<style type="text/css">
	.st0{stroke:#FFFFFF;stroke-miterlimit:10;}
	.st1{fill:#FFFFFF;stroke:#FFFFFF;stroke-miterlimit:10;}
	.st2{fill:#FFFFFF;}
</style>
<g id="圖層_3">
</g>
<g id="圖層_2">
	<g>
		<path class="st0" d="M26.2,10.3c0.6,0.6,1.2,1.2,1.8,1.7c-0.4,0.4-0.8,0.7-1.2,1.1c-0.5-0.6-1.1-1.1-1.7-1.8
			c-0.4,0.4-0.8,0.9-1.2,1.3c-1.6,1.6-3.1,3.1-4.7,4.7c-0.1,0.1-0.2,0.4-0.2,0.6c0,0.9,0,1.9,0,2.8c0,0.1,0,0.3,0,0.4
			c-0.5,0-1.1,0-1.6,0c0-0.7,0-1.4,0-2.1c-1.3,0.4-2.5,0.9-3.8,1.3c-0.3,0.1-0.7,0.1-1.1,0.1c-0.5,0-0.9-0.6-0.9-1.2
			c0-0.2,0.1-0.4,0.1-0.6c0.4-1.3,0.9-2.6,1.3-3.9c-0.7,0-1.5,0-2.2,0c0-0.6,0-1.2,0-1.8c0.9,0,1.8,0,2.7,0c0.7,0,1.1-0.2,1.5-0.6
			c1.7-1.7,3.4-3.5,5.2-5.2c0.1-0.1,0.2-0.2,0.4-0.3c-0.6-0.6-1.2-1.1-1.8-1.7c0.4-0.4,0.8-0.8,1.2-1.1c0.5,0.5,1.1,1.1,1.6,1.7
			c0.1,0,0.1,0,0.2,0.1c0.1-0.1,0.1-0.3,0.2-0.4c1.1-1.1,2.3-2.3,3.4-3.4c1.7-1.6,4.4-0.9,5.2,1.2c0.5,1.3,0.2,2.5-0.7,3.5
			c-1.1,1.1-2.2,2.2-3.3,3.3C26.5,10,26.4,10.1,26.2,10.3z M15,14.5c0.1,0,0.2,0,0.2,0c1.4,0,2.8,0,4.2,0c0.2,0,0.3-0.1,0.5-0.2
			c1.3-1.3,2.6-2.5,3.9-3.8c0.1-0.1,0.2-0.2,0.2-0.2c-0.7-0.8-1.5-1.6-2.2-2.3C19.4,10.2,17.3,12.3,15,14.5z"/>
		<path class="st0" d="M2.5,14.6c0,0.6,0,1.1,0,1.6c-0.5,0-1.1,0-1.6,0c0-1.1,0-2.1,0-3.2c1.1,0,2.1,0,3.2,0c0,0.5,0,1,0,1.6
			C3.6,14.6,3.1,14.6,2.5,14.6z"/>
		<path class="st0" d="M18.9,31c-1.1,0-2.1,0-3.2,0c0-0.5,0-1,0-1.6c0.5,0,1,0,1.6,0c0-0.6,0-1.1,0-1.6c0.6,0,1.1,0,1.6,0
			C18.9,28.8,18.9,29.9,18.9,31z"/>
		<path class="st0" d="M2.5,29.4c0.6,0,1.1,0,1.6,0c0,0.5,0,1.1,0,1.6c-1.1,0-2.1,0-3.2,0c0-1.1,0-2.1,0-3.2c0.5,0,1,0,1.6,0
			C2.5,28.3,2.5,28.8,2.5,29.4z"/>
		<path class="st0" d="M5.8,14.5c0-0.5,0-1.1,0-1.6c1.1,0,2.1,0,3.3,0c0,0.5,0,1,0,1.6C8,14.5,6.9,14.5,5.8,14.5z"/>
		<path class="st0" d="M18.9,26.1c-0.6,0-1.1,0-1.6,0c0-1.1,0-2.1,0-3.3c0.5,0,1.1,0,1.6,0C18.9,23.9,18.9,25,18.9,26.1z"/>
		<path class="st0" d="M0.9,17.9c0.5,0,1,0,1.6,0c0,1.1,0,2.2,0,3.3c-0.5,0-1,0-1.6,0C0.9,20,0.9,19,0.9,17.9z"/>
		<path class="st0" d="M2.5,26.1c-0.5,0-1,0-1.6,0c0-1.1,0-2.2,0-3.3c0.5,0,1,0,1.6,0C2.5,23.9,2.5,25,2.5,26.1z"/>
		<path class="st0" d="M5.8,31c0-0.5,0-1.1,0-1.6c1.1,0,2.2,0,3.3,0c0,0.5,0,1.1,0,1.6C8,31,6.9,31,5.8,31z"/>
		<path class="st0" d="M14,29.4c0,0.5,0,1,0,1.6c-1.1,0-2.1,0-3.2,0c0-0.5,0-1,0-1.6C11.8,29.4,12.9,29.4,14,29.4z"/>
		<path class="st1" d="M15,14.5c2.2-2.2,4.4-4.4,6.6-6.5c0.7,0.8,1.5,1.6,2.2,2.3c0,0-0.1,0.1-0.2,0.2c-1.3,1.3-2.6,2.5-3.9,3.8
			c-0.1,0.1-0.3,0.2-0.5,0.2c-1.4,0-2.8,0-4.2,0C15.2,14.6,15.1,14.6,15,14.5z"/>
	</g>
</g>
<g id="圖層_1">
	<path d="M26.2,10.3c0.6,0.6,1.2,1.2,1.8,1.7c-0.4,0.4-0.8,0.7-1.2,1.1c-0.5-0.6-1.1-1.1-1.7-1.8c-0.4,0.4-0.8,0.9-1.2,1.3
		c-1.6,1.6-3.1,3.1-4.7,4.7c-0.1,0.1-0.2,0.4-0.2,0.6c0,0.9,0,1.9,0,2.8c0,0.1,0,0.3,0,0.4c-0.5,0-1.1,0-1.6,0c0-0.7,0-1.4,0-2.1
		c-1.3,0.4-2.5,0.9-3.8,1.3c-0.3,0.1-0.7,0.1-1.1,0.1c-0.5,0-0.9-0.6-0.9-1.2c0-0.2,0.1-0.4,0.1-0.6c0.4-1.3,0.9-2.6,1.3-3.9
		c-0.7,0-1.5,0-2.2,0c0-0.6,0-1.2,0-1.8c0.9,0,1.8,0,2.7,0c0.7,0,1.1-0.2,1.5-0.6c1.7-1.7,3.4-3.5,5.2-5.2c0.1-0.1,0.2-0.2,0.4-0.3
		c-0.6-0.6-1.2-1.1-1.8-1.7c0.4-0.4,0.8-0.8,1.2-1.1c0.5,0.5,1.1,1.1,1.6,1.7c0.1,0,0.1,0,0.2,0.1c0.1-0.1,0.1-0.3,0.2-0.4
		c1.1-1.1,2.3-2.3,3.4-3.4c1.7-1.6,4.4-0.9,5.2,1.2c0.5,1.3,0.2,2.5-0.7,3.5c-1.1,1.1-2.2,2.2-3.3,3.3C26.5,10,26.4,10.1,26.2,10.3z
		 M15,14.5c0.1,0,0.2,0,0.2,0c1.4,0,2.8,0,4.2,0c0.2,0,0.3-0.1,0.5-0.2c1.3-1.3,2.6-2.5,3.9-3.8c0.1-0.1,0.2-0.2,0.2-0.2
		c-0.7-0.8-1.5-1.6-2.2-2.3C19.4,10.2,17.3,12.3,15,14.5z"/>
	<path d="M2.5,14.6c0,0.6,0,1.1,0,1.6c-0.5,0-1.1,0-1.6,0c0-1.1,0-2.1,0-3.2c1.1,0,2.1,0,3.2,0c0,0.5,0,1,0,1.6
		C3.6,14.6,3.1,14.6,2.5,14.6z"/>
	<path d="M18.9,31c-1.1,0-2.1,0-3.2,0c0-0.5,0-1,0-1.6c0.5,0,1,0,1.6,0c0-0.6,0-1.1,0-1.6c0.6,0,1.1,0,1.6,0
		C18.9,28.8,18.9,29.9,18.9,31z"/>
	<path d="M2.5,29.4c0.6,0,1.1,0,1.6,0c0,0.5,0,1.1,0,1.6c-1.1,0-2.1,0-3.2,0c0-1.1,0-2.1,0-3.2c0.5,0,1,0,1.6,0
		C2.5,28.3,2.5,28.8,2.5,29.4z"/>
	<path d="M5.8,14.5c0-0.5,0-1.1,0-1.6c1.1,0,2.1,0,3.3,0c0,0.5,0,1,0,1.6C8,14.5,6.9,14.5,5.8,14.5z"/>
	<path d="M18.9,26.1c-0.6,0-1.1,0-1.6,0c0-1.1,0-2.1,0-3.3c0.5,0,1.1,0,1.6,0C18.9,23.9,18.9,25,18.9,26.1z"/>
	<path d="M0.9,17.9c0.5,0,1,0,1.6,0c0,1.1,0,2.2,0,3.3c-0.5,0-1,0-1.6,0C0.9,20,0.9,19,0.9,17.9z"/>
	<path d="M2.5,26.1c-0.5,0-1,0-1.6,0c0-1.1,0-2.2,0-3.3c0.5,0,1,0,1.6,0C2.5,23.9,2.5,25,2.5,26.1z"/>
	<path d="M5.8,31c0-0.5,0-1.1,0-1.6c1.1,0,2.2,0,3.3,0c0,0.5,0,1.1,0,1.6C8,31,6.9,31,5.8,31z"/>
	<path d="M14,29.4c0,0.5,0,1,0,1.6c-1.1,0-2.1,0-3.2,0c0-0.5,0-1,0-1.6C11.8,29.4,12.9,29.4,14,29.4z"/>
	<path class="st2" d="M15,14.5c2.2-2.2,4.4-4.4,6.6-6.5c0.7,0.8,1.5,1.6,2.2,2.3c0,0-0.1,0.1-0.2,0.2c-1.3,1.3-2.6,2.5-3.9,3.8
		c-0.1,0.1-0.3,0.2-0.5,0.2c-1.4,0-2.8,0-4.2,0C15.2,14.6,15.1,14.6,15,14.5z"/>
</g>
</svg>
